<svg xmlns="http://www.w3.org/2000/svg" xmlns:xlink="http://www.w3.org/1999/xlink" width="500" zoomAndPan="magnify" viewBox="0 0 375 374.999991" height="500" preserveAspectRatio="xMidYMid meet" version="1.0"><defs><clipPath id="99c2e5ac87"><path d="M 2 90.507812 L 199 90.507812 L 199 346.695312 L 2 346.695312 Z M 2 90.507812 " clip-rule="nonzero"/></clipPath><clipPath id="915058425f"><path d="M 47.492188 0.6875 L 153.667969 0.6875 L 153.667969 90.304688 L 47.492188 90.304688 Z M 47.492188 0.6875 " clip-rule="nonzero"/></clipPath><clipPath id="db79ad022f"><path d="M 82 218.410156 L 119 218.410156 L 119 317.769531 L 82 317.769531 Z M 82 218.410156 " clip-rule="nonzero"/></clipPath><clipPath id="afb99bddcd"><path d="M 136 282 L 144.875 282 L 144.875 292 L 136 292 Z M 136 282 " clip-rule="nonzero"/></clipPath><clipPath id="242cf5efdf"><path d="M 74 45.597656 L 126.597656 45.597656 L 126.597656 90.40625 L 74 90.40625 Z M 74 45.597656 " clip-rule="nonzero"/></clipPath><clipPath id="2cd0d715b3"><rect x="0" width="202" y="0" height="347"/></clipPath></defs><g transform="matrix(1, 0, 0, 1, 87, 14)"><g clip-path="url(#2cd0d715b3)"><path fill="#d7e9fc" d="M 64.207031 91.746094 L 74.0625 101.628906 L 74.0625 164.246094 C 74.0625 188.96875 29.140625 247.753906 8.328125 289.511719 C 1.753906 302.695312 1.773438 319.175781 11.632812 332.359375 C 18.203125 342.246094 29.679688 345.554688 41.195312 345.554688 L 159.5 345.554688 C 171.015625 345.554688 182.488281 342.246094 189.0625 332.359375 C 198.921875 319.175781 198.941406 302.695312 192.367188 289.511719 C 173.746094 247.757812 151.835938 206 133.214844 164.246094 L 133.214844 101.628906 L 142.75 92.066406 L 143.066406 91.746094 L 64.203125 91.746094 Z M 64.207031 91.746094 " fill-opacity="1" fill-rule="evenodd"/><g clip-path="url(#99c2e5ac87)"><path stroke-linecap="round" transform="matrix(0.927456, 0, 0, 0.930236, -15.583323, 73.29973)" fill="none" stroke-linejoin="round" d="M 86.031425 19.829768 L 96.657772 30.453752 L 96.657772 97.766981 C 96.657772 124.343739 48.222182 187.53755 25.781762 232.427033 C 18.693319 246.599344 18.714378 264.315783 29.344937 278.488094 C 36.429169 289.116278 48.803409 292.673003 61.219767 292.673003 L 188.778054 292.673003 C 201.194412 292.673003 213.564441 289.116278 220.652884 278.488094 C 231.283444 264.315783 231.304503 246.599344 224.216059 232.427033 C 204.138454 187.541749 180.514521 142.652265 160.436916 97.766981 L 160.436916 30.453752 L 170.717896 20.174102 L 171.059051 19.829768 L 86.027213 19.829768 Z M 86.031425 19.829768 " stroke="#9fabb9" stroke-width="2.5" stroke-opacity="1" stroke-miterlimit="4"/></g><path fill="#ffffff" d="M 121.625 101.355469 L 121.625 165.308594 C 142.542969 209.675781 163.5625 254.015625 184.417969 298.40625 C 190.25 312.261719 182.972656 328.414062 170.351562 335.511719 C 159.097656 343.085938 145.238281 340.15625 132.566406 340.679688 L 105.664062 340.679688 C 121.71875 338.609375 138.101562 338.21875 153.9375 335.015625 C 164.339844 331.757812 176.976562 325.953125 177.613281 313.347656 C 178.265625 299.894531 169.855469 288.511719 165.378906 276.355469 C 149.246094 239.339844 133.117188 202.328125 116.988281 165.3125 L 116.988281 101.359375 L 125.367188 92.90625 L 130.035156 92.90625 L 121.625 101.359375 Z M 121.625 101.355469 " fill-opacity="1" fill-rule="evenodd"/><path fill="#000000" d="M 79.582031 101.355469 L 79.582031 165.308594 C 58.664062 209.675781 33.5 249.992188 12.644531 294.378906 C 6.808594 308.234375 11.484375 326.9375 23.078125 335.078125 C 34.671875 340.890625 31.191406 339.726562 44.296875 341.25 C 53.261719 341.25 86.574219 340.675781 95.539062 340.675781 C 79.488281 338.601562 63.105469 338.210938 47.269531 335.007812 C 36.867188 331.753906 24.230469 325.949219 23.59375 313.34375 C 22.9375 299.890625 31.351562 288.507812 35.828125 276.351562 C 51.957031 239.335938 68.089844 202.320312 84.21875 165.308594 L 84.21875 101.355469 L 75.835938 92.902344 L 71.171875 92.902344 Z M 79.582031 101.355469 " fill-opacity="0.176" fill-rule="evenodd"/><g clip-path="url(#915058425f)"><path fill="#ff3131" d="M 152.785156 44.1875 L 122.308594 55.988281 L 138.847656 11.375 C 138.925781 11.15625 138.839844 10.910156 138.640625 10.789062 C 138.4375 10.667969 138.179688 10.710938 138.027344 10.886719 C 134.792969 14.558594 108.023438 44.964844 104.171875 49.589844 C 102.234375 45.570312 92.433594 18.976562 85.9375 1.042969 C 85.859375 0.824219 85.632812 0.6875 85.402344 0.730469 C 85.171875 0.769531 85.003906 0.96875 84.996094 1.203125 L 84.320312 56.070312 L 50.527344 38.933594 C 50.335938 38.839844 50.101562 38.878906 49.953125 39.035156 C 49.804688 39.191406 49.78125 39.425781 49.886719 39.613281 L 67 69.007812 L 47.976562 69.945312 C 47.785156 69.953125 47.617188 70.074219 47.550781 70.257812 C 47.480469 70.441406 47.523438 70.640625 47.660156 70.777344 L 64.527344 87.398438 C 64.6875 87.554688 64.933594 87.582031 65.121094 87.464844 C 65.3125 87.347656 65.398438 87.117188 65.332031 86.90625 L 61.660156 75.445312 L 77.355469 74.742188 C 77.519531 74.734375 77.667969 74.644531 77.75 74.5 C 77.835938 74.355469 77.839844 74.183594 77.765625 74.035156 L 69.914062 58.820312 L 89.042969 67.480469 C 89.183594 67.546875 89.34375 67.539062 89.476562 67.46875 C 89.609375 67.394531 89.699219 67.265625 89.722656 67.113281 L 92.816406 46.804688 L 102.328125 62.132812 C 102.40625 62.257812 102.539062 62.34375 102.6875 62.359375 C 102.835938 62.375 102.984375 62.320312 103.085938 62.214844 L 114.433594 50.554688 L 111.300781 65.015625 C 111.265625 65.167969 111.308594 65.324219 111.414062 65.441406 C 111.519531 65.558594 111.671875 65.617188 111.824219 65.597656 L 123.121094 64.390625 L 113.554688 79.140625 C 113.460938 79.285156 113.449219 79.46875 113.53125 79.625 C 113.609375 79.78125 113.765625 79.878906 113.941406 79.886719 L 136.097656 80.917969 L 128.570312 89.667969 C 128.414062 89.851562 128.414062 90.117188 128.570312 90.300781 C 128.664062 90.414062 128.800781 90.46875 128.9375 90.46875 C 129.027344 90.46875 129.117188 90.445312 129.199219 90.394531 L 153.03125 75.367188 C 153.203125 75.257812 153.289062 75.058594 153.246094 74.859375 C 153.207031 74.664062 153.050781 74.511719 152.851562 74.476562 L 129.71875 70.539062 L 153.3125 44.964844 C 153.464844 44.800781 153.484375 44.550781 153.355469 44.367188 C 153.234375 44.179688 152.996094 44.109375 152.785156 44.1875 Z M 152.785156 44.1875 " fill-opacity="1" fill-rule="nonzero"/></g><g clip-path="url(#db79ad022f)"><path fill="#ffbd59" d="M 100.351562 317.785156 C 95.25 317.785156 90.582031 312.4375 87.210938 302.71875 C 83.992188 293.453125 82.222656 281.15625 82.222656 268.097656 C 82.222656 255.039062 83.992188 242.742188 87.210938 233.476562 C 90.582031 223.757812 95.25 218.40625 100.351562 218.40625 C 105.453125 218.40625 110.121094 223.757812 113.492188 233.476562 C 116.710938 242.746094 118.480469 255.039062 118.480469 268.097656 C 118.480469 281.15625 116.710938 293.449219 113.492188 302.71875 C 110.121094 312.4375 105.453125 317.785156 100.351562 317.785156 Z M 100.351562 221.117188 C 92.90625 221.117188 84.929688 239.996094 84.929688 268.097656 C 84.929688 296.199219 92.90625 315.078125 100.351562 315.078125 C 107.796875 315.078125 115.769531 296.199219 115.769531 268.097656 C 115.769531 239.996094 107.796875 221.117188 100.351562 221.117188 Z M 100.351562 221.117188 " fill-opacity="1" fill-rule="nonzero"/></g><path fill="#ffbd59" d="M 68.996094 299.910156 C 64.339844 299.90625 60.957031 298.539062 59.203125 295.953125 C 56.34375 291.726562 58.160156 284.863281 64.3125 276.625 C 70.1875 268.765625 79.375 260.40625 90.1875 253.085938 C 105.492188 242.722656 121.402344 236.285156 131.707031 236.285156 C 136.359375 236.285156 139.746094 237.652344 141.496094 240.242188 C 144.359375 244.464844 142.542969 251.332031 136.386719 259.570312 C 130.515625 267.429688 121.328125 275.789062 110.515625 283.109375 C 95.210938 293.472656 79.300781 299.910156 68.996094 299.910156 Z M 131.707031 238.996094 C 121.914062 238.996094 106.585938 245.253906 91.707031 255.328125 C 68.433594 271.082031 57.273438 288.269531 61.449219 294.433594 C 62.992188 296.71875 66.40625 297.199219 68.996094 297.199219 C 78.789062 297.199219 94.113281 290.941406 108.996094 280.867188 C 119.5625 273.710938 128.519531 265.574219 134.21875 257.949219 C 139.550781 250.808594 141.386719 244.910156 139.253906 241.761719 C 137.707031 239.476562 134.296875 238.996094 131.707031 238.996094 Z M 131.707031 238.996094 " fill-opacity="1" fill-rule="nonzero"/><path fill="#ffbd59" d="M 131.667969 299.898438 C 128.796875 299.898438 125.433594 299.398438 121.652344 298.390625 C 112.175781 295.855469 101 290.429688 90.1875 283.109375 C 85.070312 279.644531 80.300781 275.941406 76.015625 272.097656 C 75.457031 271.597656 75.410156 270.738281 75.910156 270.183594 C 76.410156 269.625 77.269531 269.578125 77.824219 270.078125 C 82.019531 273.839844 86.6875 277.472656 91.707031 280.867188 C 102.273438 288.023438 113.160156 293.316406 122.351562 295.773438 C 130.960938 298.070312 137.121094 297.585938 139.253906 294.433594 C 141.386719 291.285156 139.550781 285.386719 134.214844 278.246094 C 128.519531 270.625 119.5625 262.484375 108.996094 255.328125 C 85.726562 239.574219 65.621094 235.59375 61.445312 241.761719 C 59.574219 244.53125 60.738281 249.394531 64.730469 255.457031 C 65.144531 256.082031 64.96875 256.925781 64.34375 257.335938 C 63.71875 257.746094 62.878906 257.574219 62.46875 256.949219 C 57.765625 249.808594 56.636719 244.03125 59.203125 240.242188 C 62.0625 236.015625 69.113281 235.152344 79.046875 237.808594 C 88.527344 240.339844 99.699219 245.765625 110.511719 253.085938 C 121.328125 260.40625 130.515625 268.765625 136.386719 276.625 C 142.542969 284.863281 144.355469 291.730469 141.496094 295.953125 C 139.726562 298.570312 136.34375 299.898438 131.667969 299.898438 Z M 131.667969 299.898438 " fill-opacity="1" fill-rule="nonzero"/><path fill="#ff914d" d="M 112.113281 268.097656 C 112.113281 268.871094 112.039062 269.636719 111.890625 270.390625 C 111.738281 271.148438 111.515625 271.886719 111.21875 272.597656 C 110.925781 273.3125 110.5625 273.992188 110.132812 274.632812 C 109.703125 275.273438 109.214844 275.871094 108.667969 276.414062 C 108.125 276.960938 107.527344 277.449219 106.886719 277.878906 C 106.246094 278.308594 105.566406 278.671875 104.851562 278.964844 C 104.140625 279.261719 103.402344 279.484375 102.644531 279.636719 C 101.890625 279.785156 101.125 279.863281 100.351562 279.863281 C 99.578125 279.863281 98.8125 279.785156 98.054688 279.636719 C 97.296875 279.484375 96.5625 279.261719 95.847656 278.964844 C 95.136719 278.671875 94.457031 278.308594 93.816406 277.878906 C 93.171875 277.449219 92.578125 276.960938 92.03125 276.414062 C 91.488281 275.871094 91 275.273438 90.570312 274.632812 C 90.140625 273.992188 89.777344 273.3125 89.484375 272.597656 C 89.1875 271.886719 88.964844 271.148438 88.8125 270.390625 C 88.664062 269.636719 88.585938 268.871094 88.585938 268.097656 C 88.585938 267.324219 88.664062 266.558594 88.8125 265.800781 C 88.964844 265.042969 89.1875 264.308594 89.484375 263.59375 C 89.777344 262.882812 90.140625 262.203125 90.570312 261.5625 C 91 260.917969 91.488281 260.324219 92.03125 259.777344 C 92.578125 259.234375 93.171875 258.746094 93.816406 258.316406 C 94.457031 257.886719 95.136719 257.523438 95.847656 257.230469 C 96.5625 256.933594 97.296875 256.710938 98.054688 256.558594 C 98.8125 256.410156 99.578125 256.332031 100.351562 256.332031 C 101.125 256.332031 101.890625 256.410156 102.644531 256.558594 C 103.402344 256.710938 104.140625 256.933594 104.851562 257.230469 C 105.566406 257.523438 106.246094 257.886719 106.886719 258.316406 C 107.527344 258.746094 108.125 259.234375 108.667969 259.777344 C 109.214844 260.324219 109.703125 260.917969 110.132812 261.5625 C 110.5625 262.203125 110.925781 262.882812 111.21875 263.59375 C 111.515625 264.308594 111.738281 265.042969 111.890625 265.800781 C 112.039062 266.558594 112.113281 267.324219 112.113281 268.097656 Z M 112.113281 268.097656 " fill-opacity="1" fill-rule="nonzero"/><path fill="#ff914d" d="M 95.589844 226.824219 C 95.589844 227.105469 95.5625 227.382812 95.507812 227.660156 C 95.453125 227.933594 95.371094 228.203125 95.265625 228.460938 C 95.15625 228.722656 95.027344 228.96875 94.871094 229.203125 C 94.714844 229.4375 94.535156 229.652344 94.335938 229.851562 C 94.140625 230.050781 93.921875 230.226562 93.6875 230.382812 C 93.457031 230.539062 93.207031 230.671875 92.949219 230.777344 C 92.691406 230.886719 92.421875 230.964844 92.148438 231.019531 C 91.871094 231.078125 91.59375 231.105469 91.3125 231.105469 C 91.03125 231.105469 90.753906 231.078125 90.476562 231.019531 C 90.203125 230.964844 89.933594 230.886719 89.675781 230.777344 C 89.414062 230.671875 89.167969 230.539062 88.933594 230.382812 C 88.703125 230.226562 88.484375 230.050781 88.285156 229.851562 C 88.089844 229.652344 87.910156 229.4375 87.753906 229.203125 C 87.597656 228.96875 87.46875 228.722656 87.359375 228.460938 C 87.253906 228.203125 87.171875 227.933594 87.117188 227.660156 C 87.0625 227.382812 87.035156 227.105469 87.035156 226.824219 C 87.035156 226.542969 87.0625 226.265625 87.117188 225.992188 C 87.171875 225.714844 87.253906 225.449219 87.359375 225.1875 C 87.46875 224.929688 87.597656 224.683594 87.753906 224.449219 C 87.910156 224.214844 88.089844 224 88.285156 223.800781 C 88.484375 223.601562 88.703125 223.425781 88.933594 223.269531 C 89.167969 223.113281 89.414062 222.980469 89.675781 222.871094 C 89.933594 222.765625 90.203125 222.683594 90.476562 222.628906 C 90.753906 222.574219 91.03125 222.546875 91.3125 222.546875 C 91.59375 222.546875 91.871094 222.574219 92.148438 222.628906 C 92.421875 222.683594 92.691406 222.765625 92.949219 222.871094 C 93.207031 222.980469 93.457031 223.113281 93.6875 223.269531 C 93.921875 223.425781 94.140625 223.601562 94.335938 223.800781 C 94.535156 224 94.714844 224.214844 94.871094 224.449219 C 95.027344 224.683594 95.15625 224.929688 95.265625 225.1875 C 95.371094 225.449219 95.453125 225.714844 95.507812 225.992188 C 95.5625 226.265625 95.589844 226.542969 95.589844 226.824219 Z M 95.589844 226.824219 " fill-opacity="1" fill-rule="nonzero"/><g clip-path="url(#afb99bddcd)"><path fill="#ff914d" d="M 144.683594 286.992188 C 144.683594 287.273438 144.65625 287.550781 144.601562 287.828125 C 144.546875 288.101562 144.464844 288.371094 144.359375 288.628906 C 144.25 288.890625 144.117188 289.136719 143.960938 289.371094 C 143.804688 289.605469 143.628906 289.820312 143.429688 290.019531 C 143.230469 290.21875 143.015625 290.394531 142.78125 290.550781 C 142.546875 290.707031 142.300781 290.839844 142.042969 290.945312 C 141.78125 291.054688 141.515625 291.132812 141.238281 291.1875 C 140.964844 291.246094 140.6875 291.273438 140.40625 291.273438 C 140.125 291.273438 139.847656 291.246094 139.570312 291.1875 C 139.296875 291.132812 139.027344 291.054688 138.769531 290.945312 C 138.507812 290.839844 138.261719 290.707031 138.027344 290.550781 C 137.792969 290.394531 137.578125 290.21875 137.378906 290.019531 C 137.179688 289.820312 137.003906 289.605469 136.847656 289.371094 C 136.691406 289.136719 136.558594 288.890625 136.453125 288.628906 C 136.34375 288.371094 136.265625 288.101562 136.210938 287.828125 C 136.152344 287.550781 136.125 287.273438 136.125 286.992188 C 136.125 286.710938 136.152344 286.433594 136.210938 286.160156 C 136.265625 285.882812 136.34375 285.617188 136.453125 285.355469 C 136.558594 285.097656 136.691406 284.851562 136.847656 284.617188 C 137.003906 284.382812 137.179688 284.167969 137.378906 283.96875 C 137.578125 283.769531 137.792969 283.59375 138.027344 283.4375 C 138.261719 283.28125 138.507812 283.148438 138.769531 283.039062 C 139.027344 282.933594 139.296875 282.851562 139.570312 282.796875 C 139.847656 282.742188 140.125 282.714844 140.40625 282.714844 C 140.6875 282.714844 140.964844 282.742188 141.238281 282.796875 C 141.515625 282.851562 141.78125 282.933594 142.042969 283.039062 C 142.300781 283.148438 142.546875 283.28125 142.78125 283.4375 C 143.015625 283.59375 143.230469 283.769531 143.429688 283.96875 C 143.628906 284.167969 143.804688 284.382812 143.960938 284.617188 C 144.117188 284.851562 144.25 285.097656 144.359375 285.355469 C 144.464844 285.617188 144.546875 285.882812 144.601562 286.160156 C 144.65625 286.433594 144.683594 286.710938 144.683594 286.992188 Z M 144.683594 286.992188 " fill-opacity="1" fill-rule="nonzero"/></g><path fill="#ff914d" d="M 73.414062 297.609375 C 73.414062 297.886719 73.386719 298.167969 73.332031 298.441406 C 73.277344 298.71875 73.195312 298.984375 73.085938 299.246094 C 72.980469 299.503906 72.847656 299.75 72.691406 299.984375 C 72.535156 300.21875 72.359375 300.433594 72.160156 300.632812 C 71.960938 300.832031 71.746094 301.007812 71.511719 301.164062 C 71.277344 301.320312 71.03125 301.453125 70.773438 301.558594 C 70.511719 301.667969 70.246094 301.75 69.96875 301.804688 C 69.695312 301.859375 69.417969 301.886719 69.136719 301.886719 C 68.855469 301.886719 68.574219 301.859375 68.300781 301.804688 C 68.023438 301.75 67.757812 301.667969 67.496094 301.558594 C 67.238281 301.453125 66.992188 301.320312 66.757812 301.164062 C 66.523438 301.007812 66.308594 300.832031 66.109375 300.632812 C 65.910156 300.433594 65.734375 300.21875 65.578125 299.984375 C 65.421875 299.75 65.289062 299.503906 65.183594 299.246094 C 65.074219 298.984375 64.992188 298.71875 64.9375 298.441406 C 64.882812 298.167969 64.855469 297.886719 64.855469 297.609375 C 64.855469 297.328125 64.882812 297.046875 64.9375 296.773438 C 64.992188 296.496094 65.074219 296.230469 65.183594 295.96875 C 65.289062 295.710938 65.421875 295.464844 65.578125 295.230469 C 65.734375 294.996094 65.910156 294.78125 66.109375 294.582031 C 66.308594 294.382812 66.523438 294.207031 66.757812 294.050781 C 66.992188 293.894531 67.238281 293.761719 67.496094 293.65625 C 67.757812 293.546875 68.023438 293.464844 68.300781 293.410156 C 68.574219 293.355469 68.855469 293.328125 69.136719 293.328125 C 69.417969 293.328125 69.695312 293.355469 69.96875 293.410156 C 70.246094 293.464844 70.511719 293.546875 70.773438 293.65625 C 71.03125 293.761719 71.277344 293.894531 71.511719 294.050781 C 71.746094 294.207031 71.960938 294.382812 72.160156 294.582031 C 72.359375 294.78125 72.535156 294.996094 72.691406 295.230469 C 72.847656 295.464844 72.980469 295.710938 73.085938 295.96875 C 73.195312 296.230469 73.277344 296.496094 73.332031 296.773438 C 73.386719 297.046875 73.414062 297.328125 73.414062 297.609375 Z M 73.414062 297.609375 " fill-opacity="1" fill-rule="nonzero"/><g clip-path="url(#242cf5efdf)"><path fill="#ffde59" d="M 126.636719 67.34375 L 111.398438 73.246094 L 119.667969 50.941406 C 119.707031 50.832031 119.664062 50.707031 119.5625 50.648438 C 119.460938 50.589844 119.335938 50.609375 119.257812 50.695312 C 117.640625 52.53125 104.257812 67.734375 102.332031 70.046875 C 101.363281 68.035156 96.464844 54.742188 93.214844 45.777344 C 93.175781 45.664062 93.0625 45.597656 92.949219 45.617188 C 92.832031 45.636719 92.75 45.738281 92.746094 45.855469 L 92.40625 73.285156 L 75.511719 64.71875 C 75.417969 64.671875 75.300781 64.691406 75.226562 64.769531 C 75.152344 64.847656 75.140625 64.964844 75.195312 65.058594 L 83.75 79.753906 L 74.238281 80.222656 C 74.144531 80.226562 74.058594 80.285156 74.023438 80.378906 C 73.992188 80.46875 74.011719 80.570312 74.082031 80.636719 L 82.511719 88.945312 C 82.589844 89.023438 82.714844 89.039062 82.808594 88.980469 C 82.902344 88.921875 82.949219 88.804688 82.914062 88.699219 L 81.078125 82.972656 L 88.925781 82.621094 C 89.007812 82.617188 89.082031 82.570312 89.125 82.5 C 89.164062 82.425781 89.167969 82.339844 89.128906 82.265625 L 85.203125 74.660156 L 94.769531 78.992188 C 94.839844 79.023438 94.917969 79.019531 94.984375 78.984375 C 95.050781 78.945312 95.097656 78.882812 95.109375 78.804688 L 96.65625 68.652344 L 101.410156 76.316406 C 101.449219 76.378906 101.515625 76.421875 101.589844 76.429688 C 101.664062 76.4375 101.738281 76.410156 101.789062 76.355469 L 107.460938 70.527344 L 105.894531 77.757812 C 105.878906 77.832031 105.898438 77.910156 105.953125 77.96875 C 106.003906 78.027344 106.082031 78.058594 106.160156 78.046875 L 111.804688 77.445312 L 107.023438 84.816406 C 106.976562 84.890625 106.96875 84.984375 107.011719 85.0625 C 107.050781 85.136719 107.128906 85.1875 107.214844 85.191406 L 118.292969 85.707031 L 114.527344 90.082031 C 114.449219 90.171875 114.449219 90.308594 114.527344 90.398438 C 114.578125 90.453125 114.644531 90.480469 114.714844 90.480469 C 114.757812 90.480469 114.804688 90.46875 114.84375 90.445312 L 126.757812 82.929688 C 126.84375 82.878906 126.886719 82.777344 126.867188 82.679688 C 126.84375 82.582031 126.769531 82.503906 126.667969 82.488281 L 115.101562 80.519531 L 126.898438 67.734375 C 126.976562 67.652344 126.984375 67.527344 126.921875 67.433594 C 126.859375 67.339844 126.742188 67.304688 126.636719 67.34375 Z M 126.636719 67.34375 " fill-opacity="1" fill-rule="nonzero"/></g></g></g></svg>