<svg width="161" height="191" viewBox="0 0 161 191" fill="none" xmlns="http://www.w3.org/2000/svg">
<g clip-path="url(#clip0_90_2)">
<path d="M64.4696 108.969L56.2013 110.285C48.4303 118.352 44.0583 136.183 53.3233 141.872C53.9956 142.286 66.6812 139.891 67.5009 140.169" fill="#FAA51F"/>
<path d="M64.4696 108.969L56.2013 110.285C48.4303 118.352 44.0583 136.183 53.3233 141.872C53.9956 142.286 66.6812 139.891 67.5009 140.169" stroke="#8E5322" stroke-width="1.4" stroke-miterlimit="10" stroke-linecap="round" stroke-linejoin="round"/>
<path d="M48.4972 132.639C52.4014 149.463 59.5255 156.133 66.7755 153.036C69.8678 151.746 71.812 142.625 63.8366 134.173" fill="#FAA51F"/>
<path d="M48.4972 132.639C52.4014 149.463 59.5255 156.133 66.7755 153.036C69.8678 151.746 71.812 142.625 63.8366 134.173" stroke="#8E5322" stroke-width="1.4" stroke-miterlimit="10" stroke-linecap="round" stroke-linejoin="round"/>
<path d="M86.1036 139.282C84.7276 140.671 81.9734 143.054 88.0695 148.808C94.1616 154.562 107.922 152.776 109.495 152.379C115.393 151.189 122.863 149.403 130.335 144.641C151.959 131.151 146.062 104.959 137.609 102.578C129.155 100.199 129.549 117.064 121.292 129.364C117.557 134.921 112.446 137.897 107.924 139.881C101.634 142.858 87.4797 138.096 86.1036 139.282Z" fill="#FAA51F"/>
<path d="M129.549 111.112C127.388 116.667 123.258 126.588 123.258 126.588C123.258 126.588 130.925 123.411 135.839 125.993C140.754 128.57 138.198 137.499 140.754 134.721C142.523 131.548 145.275 126.388 145.668 119.048C145.863 111.707 141.344 102.779 137.215 102.382C132.891 102.382 131.318 105.951 129.549 111.112Z" fill="white"/>
<path d="M86.1036 139.282C84.7276 140.671 81.9734 143.054 88.0695 148.808C94.1616 154.562 107.922 152.776 109.495 152.379C115.393 151.189 122.863 149.403 130.335 144.641C151.959 131.151 146.062 104.959 137.609 102.578C129.155 100.199 129.549 117.064 121.292 129.364C117.557 134.921 112.446 137.897 107.924 139.881C101.634 142.858 87.4797 138.096 86.1036 139.282Z" stroke="#8E5322" stroke-width="1.4" stroke-miterlimit="10" stroke-linecap="round" stroke-linejoin="round"/>
<path d="M59.958 144.245C59.958 144.245 63.2999 155.157 61.7273 172.619C61.1375 180.159 47.1801 171.627 48.163 186.308C48.5562 190.476 66.6419 190.077 70.7701 188.492C74.5052 187.103 75.4881 185.714 74.9003 181.746C72.736 167.262 80.0115 150.596 80.0115 150.596" fill="#FAA51F"/>
<path d="M59.958 144.245C59.958 144.245 63.2999 155.157 61.7273 172.619C61.1375 180.159 47.1801 171.627 48.163 186.308C48.5562 190.476 66.6419 190.077 70.7701 188.492C74.5052 187.103 75.4881 185.714 74.9003 181.746C72.736 167.262 80.0115 150.596 80.0115 150.596" stroke="#8E5322" stroke-width="1.4" stroke-miterlimit="10" stroke-linecap="round" stroke-linejoin="round"/>
<path d="M63.3 176.389C60.3512 175.794 57.7956 176.191 57.7956 176.191Z" fill="#FAA51F"/>
<path d="M63.3 176.389C60.3512 175.794 57.7956 176.191 57.7956 176.191" stroke="#8E5322" stroke-width="1.4" stroke-miterlimit="10" stroke-linecap="round" stroke-linejoin="round"/>
<path d="M58.3854 122.62C58.3854 135.913 55.0434 155.357 78.4369 155.357C101.83 155.357 99.6679 137.5 99.6679 124.207C99.6679 110.913 91.608 107.342 78.4369 107.342C65.2658 107.342 58.3854 109.326 58.3854 122.62Z" fill="#FAA51F" stroke="#8E5322" stroke-width="1.4" stroke-miterlimit="10" stroke-linecap="round" stroke-linejoin="round"/>
<path d="M63.4965 128.372C63.4965 136.705 61.7273 149.205 74.3086 149.205C86.888 149.205 85.9051 137.897 85.9051 129.564C85.9051 121.231 81.5803 118.85 74.3086 118.85C67.035 118.848 63.4965 120.04 63.4965 128.372Z" fill="white"/>
<path d="M79.8149 155.949C79.8149 155.949 82.7637 174.004 82.1739 182.337C81.7808 186.506 83.3515 188.688 87.4797 189.482C91.8046 190.276 106.745 190.673 106.942 185.712C107.728 170.635 96.7191 179.958 95.5396 172.419C92.9841 155.157 98.0952 144.245 98.0952 144.245" fill="#FAA51F"/>
<path d="M79.8149 155.949C79.8149 155.949 82.7637 174.004 82.1739 182.337C81.7808 186.506 83.3515 188.688 87.4797 189.482C91.8046 190.276 106.745 190.673 106.942 185.712C107.728 170.635 96.7191 179.958 95.5396 172.419C92.9841 155.157 98.0952 144.245 98.0952 144.245" stroke="#8E5322" stroke-width="1.4" stroke-miterlimit="10" stroke-linecap="round" stroke-linejoin="round"/>
<path d="M100.258 175.99C100.258 175.99 97.1123 175.595 94.3602 176.387Z" fill="#FAA51F"/>
<path d="M100.258 175.99C100.258 175.99 97.1123 175.595 94.3602 176.387" stroke="#8E5322" stroke-width="1.4" stroke-miterlimit="10" stroke-linecap="round" stroke-linejoin="round"/>
<path d="M96.2277 138.592C96.554 138.407 111.5 142.461 111.777 142.223C118.334 136.59 111.119 116.632 98.2918 106.35L82.7637 109.128" fill="#FAA51F"/>
<path d="M96.2277 138.592C96.554 138.407 111.5 142.461 111.777 142.223C118.334 136.59 111.119 116.632 98.2918 106.35L82.7637 109.128" stroke="#8E5322" stroke-width="1.4" stroke-miterlimit="10" stroke-linecap="round" stroke-linejoin="round"/>
<path d="M93.5738 121.824C95.864 128.044 99.6325 135.584 99.6325 135.584Z" fill="#FAA51F"/>
<path d="M93.5738 121.824C95.864 128.044 99.6325 135.584 99.6325 135.584" stroke="#8E5322" stroke-width="1.4" stroke-miterlimit="10" stroke-linecap="round" stroke-linejoin="round"/>
<path d="M101.311 135.316L98.9543 135.913" stroke="#8E5322" stroke-width="1.4" stroke-miterlimit="10" stroke-linecap="round" stroke-linejoin="round"/>
<path d="M72.9325 15.2776L58.7785 1.38885L53.2742 23.6108C53.2742 23.6108 41.086 32.7397 37.3509 39.0869C31.2568 49.6046 31.0622 58.1343 31.0622 58.1343C31.0622 58.1343 17.4959 62.3009 15.1369 73.2135C12.7779 84.1261 21.231 104.959 57.0073 112.102C92.7855 119.245 121.489 109.523 135.051 87.4991C148.419 65.6739 127.188 39.4837 128.369 41.071L132.694 4.76184L107.924 21.0315C107.924 21.0315 99.4733 17.6585 90.4285 17.2617C87.0885 17.0633 80.9925 17.4601 78.0437 17.6585L72.9325 15.2776Z" fill="#FAA51F"/>
<path d="M31.8466 59.1283C31.8466 59.1283 18.8721 62.3029 16.5131 73.2155C13.5643 84.128 23.1989 104.763 57.0093 110.913C64.6761 112.302 71.5565 113.691 82.3686 113.691C99.0782 113.888 117.36 103.374 115.984 81.3503C115.2 68.652 99.2748 69.6441 99.2748 69.6441L85.3173 66.0727C85.3173 66.0727 71.3599 69.2453 63.1034 67.4616C54.8469 65.6759 54.8469 59.1283 54.8469 59.1283L37.5475 53.9677L32.8295 57.9359L31.8466 59.1283Z" fill="white"/>
<path d="M1.37605 60.7156C1.37605 60.7156 4.91263 63.8901 10.0258 65.6758C14.3526 67.2631 23.0002 68.652 23.0002 68.652" stroke="#8E5322" stroke-width="1.4" stroke-miterlimit="10" stroke-linecap="round" stroke-linejoin="round"/>
<path d="M2.55761 82.9376C2.55761 82.9376 6.09612 83.3344 11.4039 82.7372C16.9062 82.3423 22.0174 80.1578 22.0174 80.1578" stroke="#8E5322" stroke-width="1.4" stroke-miterlimit="10" stroke-linecap="round" stroke-linejoin="round"/>
<path d="M112.446 18.0573L102.224 25.2001" stroke="#8E5322" stroke-width="1.4" stroke-miterlimit="10" stroke-linecap="round" stroke-linejoin="round"/>
<path d="M72.9325 15.2776L58.7785 1.38885L53.2742 23.6108C53.2742 23.6108 41.086 32.7397 37.3509 39.0869C31.2568 49.6046 31.0622 58.1343 31.0622 58.1343C31.0622 58.1343 17.4959 62.3009 15.1369 73.2135C12.7779 84.1261 21.231 104.959 57.0073 112.102C92.7855 119.245 121.489 109.523 135.051 87.4991C148.419 65.6739 127.188 39.4837 128.369 41.071L132.694 4.76184L107.924 21.0315C107.924 21.0315 99.4733 17.6585 90.4285 17.2617C87.0885 17.0633 80.9925 17.4601 78.0437 17.6585L72.9325 15.2776Z" stroke="#8E5322" stroke-width="1.4" stroke-miterlimit="10" stroke-linecap="round" stroke-linejoin="round"/>
<path d="M136.232 78.5706C136.232 78.5706 143.113 79.5626 146.651 79.761C150.19 79.9594 158.053 79.1658 158.053 79.1658" stroke="#8E5322" stroke-width="1.4" stroke-miterlimit="10" stroke-linecap="round" stroke-linejoin="round"/>
<path d="M159.624 60.1204C159.624 60.1204 155.299 60.912 147.436 64.4854C140.361 67.66 135.839 71.0329 135.839 71.0329" stroke="#8E5322" stroke-width="1.4" stroke-miterlimit="10" stroke-linecap="round" stroke-linejoin="round"/>
<path d="M41.6757 39.2873C36.1714 47.8189 35.9768 57.7394 41.2826 61.1124C46.5903 64.6838 55.4366 60.5172 60.941 51.7871C66.4473 43.2555 66.6419 33.3349 61.3341 29.962C56.0264 26.589 47.1801 30.7556 41.6757 39.2873Z" fill="white" stroke="#8E5322" stroke-width="1.4" stroke-miterlimit="10" stroke-linecap="round" stroke-linejoin="round"/>
<path d="M41.8723 46.428C41.2806 48.4121 42.2635 50.3963 44.2294 50.9915C45.9986 51.5887 47.9645 50.3962 48.5542 48.2157C49.144 46.2316 48.161 44.2475 46.1952 43.6523C44.2313 43.2555 42.4621 44.4439 41.8723 46.428Z" fill="#414142"/>
<path d="M87.2831 45.436C81.7788 53.9677 82.3685 64.285 88.6592 68.4536C94.9499 72.6203 104.582 69.0489 110.085 60.3168C115.591 51.7852 114.999 41.4678 108.711 37.3012C102.42 33.335 92.7875 36.9063 87.2831 45.436Z" fill="white" stroke="#8E5322" stroke-width="1.4" stroke-miterlimit="10" stroke-linecap="round" stroke-linejoin="round"/>
<path d="M87.8729 53.176C87.8729 55.1601 89.4456 56.9438 91.2148 56.9438C93.1807 56.9438 94.5567 55.3565 94.5567 53.176C94.5567 51.1919 92.9841 49.4062 91.2148 49.4062C89.4456 49.4062 87.8729 50.9915 87.8729 53.176Z" fill="#414142"/>
<path d="M65.659 65.0806C62.317 64.6838 57.7956 62.1044 57.2059 65.8723C57.2059 67.4615 60.3512 74.0091 63.8877 74.2055C67.8194 74.4059 74.6998 69.4456 74.5032 66.4695C74.3066 63.4933 68.6077 65.4774 65.659 65.0806Z" fill="#5F4B43" stroke="#8E5322" stroke-width="1.4" stroke-miterlimit="10" stroke-linecap="round" stroke-linejoin="round"/>
<path d="M68.0199 98.0148C78.6335 100.199 83.5481 95.6339 83.5481 95.6339Z" fill="white"/>
<path d="M68.0199 98.0148C78.6335 100.199 83.5481 95.6339 83.5481 95.6339" stroke="#8E5322" stroke-width="1.4" stroke-miterlimit="10" stroke-linecap="round" stroke-linejoin="round"/>
<path d="M97.4426 136.953C87.3008 142.558 87.6665 151.111 90.226 153.286C96.2041 158.459 104.995 154.292 113.781 139.459" fill="#FAA51F"/>
<path d="M97.4426 136.953C87.3008 142.558 87.6665 151.111 90.226 153.286C96.2041 158.459 104.995 154.292 113.781 139.459" stroke="#8E5322" stroke-width="1.4" stroke-miterlimit="10" stroke-linecap="round" stroke-linejoin="round"/>
</g>
<defs>
<clipPath id="clip0_90_2">
<rect width="161" height="191" fill="white" transform="matrix(-1 0 0 1 161 0)"/>
</clipPath>
</defs>
</svg>
